<svg width="74" height="16" viewBox="0 0 74 16" fill="none" xmlns="http://www.w3.org/2000/svg">
<path d="M6.82 15.2C5.83333 15.2 4.92 15.02 4.08 14.66C3.25333 14.2867 2.53333 13.7733 1.92 13.12C1.30667 12.4533 0.833333 11.6733 0.5 10.78C0.166667 9.87333 1.49012e-08 8.88 1.49012e-08 7.8C1.49012e-08 6.72 0.166667 5.73333 0.5 4.84C0.833333 3.93333 1.3 3.15333 1.9 2.5C2.51333 1.83333 3.23333 1.32 4.06 0.96C4.9 0.586666 5.81333 0.4 6.8 0.4C7.88 0.4 8.84667 0.62 9.7 1.06C10.5667 1.5 11.2733 2.12 11.82 2.92C12.38 3.72 12.7267 4.65333 12.86 5.72H11.22C11.06 4.53333 10.5867 3.6 9.8 2.92C9.02667 2.22667 8.03333 1.88 6.82 1.88C5.79333 1.88 4.89333 2.13333 4.12 2.64C3.34667 3.13333 2.74667 3.82667 2.32 4.72C1.89333 5.6 1.68 6.62667 1.68 7.8C1.68 8.97333 1.89333 10.0067 2.32 10.9C2.74667 11.78 3.34667 12.4733 4.12 12.98C4.89333 13.4733 5.78667 13.72 6.8 13.72C8.04 13.72 9.05333 13.3733 9.84 12.68C10.64 11.9867 11.1133 11.0533 11.26 9.88H12.9C12.7667 10.9467 12.42 11.88 11.86 12.68C11.3133 13.48 10.6067 14.1 9.74 14.54C8.88667 14.98 7.91333 15.2 6.82 15.2ZM15.307 15V4.8H16.907V15H15.307ZM15.187 2.48V0.599999H17.027V2.48H15.187ZM20.1117 15V4.8H21.6117V7.2H21.7117V15H20.1117ZM27.4117 15V8.32C27.4117 7.54667 27.2184 6.96667 26.8317 6.58C26.4451 6.19333 25.8717 6 25.1117 6C24.4451 6 23.8517 6.14667 23.3317 6.44C22.8251 6.73333 22.4251 7.14 22.1317 7.66C21.8517 8.18 21.7117 8.78667 21.7117 9.48L21.4517 7.06C21.7984 6.3 22.3251 5.7 23.0317 5.26C23.7517 4.82 24.5651 4.6 25.4717 4.6C26.5384 4.6 27.3917 4.90667 28.0317 5.52C28.6851 6.12 29.0117 6.91333 29.0117 7.9V15H27.4117ZM36.2644 15.2C35.291 15.2 34.431 14.9733 33.6844 14.52C32.9377 14.0533 32.351 13.42 31.9244 12.62C31.4977 11.82 31.2844 10.9 31.2844 9.86C31.2844 8.82 31.491 7.90667 31.9044 7.12C32.331 6.32 32.9244 5.7 33.6844 5.26C34.4444 4.82 35.3177 4.6 36.3044 4.6C37.251 4.6 38.071 4.80667 38.7644 5.22C39.471 5.63333 40.011 6.21333 40.3844 6.96C40.771 7.70667 40.9644 8.58667 40.9644 9.6C40.9644 9.73333 40.9577 9.86 40.9444 9.98C40.9444 10.1 40.931 10.2333 40.9044 10.38H32.4844V9.04H39.9244L39.4044 9.78C39.4044 8.55333 39.131 7.61333 38.5844 6.96C38.051 6.29333 37.291 5.96 36.3044 5.96C35.291 5.96 34.471 6.31333 33.8444 7.02C33.231 7.71333 32.9244 8.65333 32.9244 9.84C32.9244 11.0533 33.231 12.0267 33.8444 12.76C34.471 13.48 35.3044 13.84 36.3444 13.84C36.9977 13.84 37.571 13.7 38.0644 13.42C38.5577 13.1267 38.9177 12.7133 39.1444 12.18H40.6644C40.331 13.1133 39.771 13.8533 38.9844 14.4C38.211 14.9333 37.3044 15.2 36.2644 15.2ZM36.2644 3.34H34.7444L37.0044 0.2H39.4644L36.2644 3.34Z" fill="#3F3434" fill-opacity="0.66"/>
<path d="M43.4934 15V0.599999H45.1334V15H43.4934ZM44.3334 8.82V7.38H52.0934V8.82H44.3334ZM44.3334 2.04V0.599999H52.6534V2.04H44.3334ZM55.4047 15V0.599999H57.0047V15H55.4047ZM60.2094 15V4.8H61.8094V15H60.2094ZM60.0894 2.48V0.599999H61.9294V2.48H60.0894ZM71.6216 15L68.2416 10.26L64.2016 4.8H66.0616L69.1816 9.18L73.4816 15H71.6216ZM68.3416 9.26L71.5416 4.8H73.3416L69.1816 10.34L68.3416 9.26ZM69.0216 10.36L65.5616 15H63.7416L68.2416 9.22L69.0216 10.36Z" fill="#EB3A3A"/>
</svg>
